Coordinates
version=1
nRows=10
nColumns=63
inDegrees=yes

Units are S.I. units (second, meters, Newtons, ...)
If the header above contains a line with 'inDegrees', this indicates whether rotational values are in degrees (yes) or radians (no).

endheader
time	pelvis_tilt	pelvis_list	pelvis_rotation	pelvis_tx	pelvis_ty	pelvis_tz	hip_flexion_r	hip_adduction_r	hip_rotation_r	knee_angle_r	knee_angle_r_beta	ankle_angle_r	subtalar_angle_r	mtp_angle_r	hip_flexion_l	hip_adduction_l	hip_rotation_l	knee_angle_l	knee_angle_l_beta	ankle_angle_l	subtalar_angle_l	mtp_angle_l	L5_S1_Flex_Ext	L5_S1_Lat_Bending	L5_S1_axial_rotation	L4_L5_Flex_Ext	L4_L5_Lat_Bending	L4_L5_axial_rotation	L3_L4_Flex_Ext	L3_L4_Lat_Bending	L3_L4_axial_rotation	L2_L3_Flex_Ext	L2_L3_Lat_Bending	L2_L3_axial_rotation	L1_L2_Flex_Ext	L1_L2_Lat_Bending	L1_L2_axial_rotation	L1_T12_Flex_Ext	L1_T12_Lat_Bending	L1_T12_axial_rotation	Abs_r3	Abs_r2	Abs_r1	Abs_t1	Abs_t2	neck_flexion	neck_bending	neck_rotation	arm_flex_r	arm_add_r	arm_rot_r	elbow_flex_r	pro_sup_r	wrist_flex_r	wrist_dev_r	arm_flex_l	arm_add_l	arm_rot_l	elbow_flex_l	pro_sup_l	wrist_flex_l	wrist_dev_l
      5.81355932	     -2.59822966	     -5.03251122	    103.37639722	      0.20833134	      0.84726904	      0.72984239	      4.03829628	     -2.88173100	     -4.81429696	     13.59043098	      0.23719777	     38.91294715	    -10.70842440	      0.00000000	      6.43034246	      2.40615376	     10.22584881	      9.18681491	      0.16034017	     41.32636478	     15.81979795	      0.00000000	      0.40720018	      0.51289488	     -1.24972794	      0.75621146	      0.68215019	     -1.32783593	      0.66898918	      1.24705262	     -1.32783593	      0.46538909	      1.24705262	     -1.09351195	      0.37812609	      1.04589524	     -1.01540395	      0.23267418	      0.79447417	     -0.93729595	      2.90859018	      5.80196948	     -6.95061187	      0.00000000	      0.00000000	     28.22218113	     11.18763569	     39.87553564	      3.20346190	    -21.77353775	     30.02951093	     78.00606953	     88.46456738	    -16.00228774	     19.26827928	     65.53925321	    -31.42590120	    -11.83431127	    143.68966307	     89.41465506	     -3.27225048	     27.51806267
      5.83050847	     -2.62139911	     -4.97245658	    103.40283747	      0.20851891	      0.84762818	      0.72929414	      3.93911519	     -2.85883177	     -5.07545628	     13.46426775	      0.23499580	     39.00675996	    -11.09029919	      0.00000000	      6.34624945	      2.39907873	     10.41809071	      9.17416241	      0.16011934	     41.36549746	     15.70280686	      0.00000000	      0.42208810	      0.53214543	     -1.33513994	      0.78385981	      0.70775342	     -1.41858618	      0.69344854	      1.29385840	     -1.41858618	      0.48240449	      1.29385840	     -1.16824745	      0.39195101	      1.08515096	     -1.08480120	      0.24118114	      0.82429327	     -1.00135495	      3.01493311	      6.01973555	     -7.42564780	      0.00000000	      0.00000000	     28.24819606	     11.67589391	     41.56472804	      3.82014574	    -22.10340029	     31.65122486	     77.64337760	     88.47134282	    -17.89572874	     18.34164174	     64.41340858	    -31.49230816	    -12.87349212	    144.47945874	     89.39605629	     -4.07506745	     24.59298775
      5.84745763	     -2.64679277	     -4.94938686	    103.50136847	      0.20854720	      0.84781483	      0.72881641	      3.85602900	     -2.86851394	     -5.41655348	     13.37643067	      0.23346276	     39.03110001	    -11.41082096	      0.00000000	      6.24344692	      2.41123732	     10.59158699	      9.02932640	      0.15759147	     41.27257414	     15.57586694	      0.00000000	      0.44363968	      0.54133251	     -1.37860210	      0.82388324	      0.71997224	     -1.46476473	      0.72885562	      1.31619587	     -1.46476473	      0.50703579	      1.31619587	     -1.20627684	      0.41196380	      1.10388526	     -1.12011421	      0.25349571	      0.83852406	     -1.03395158	      3.16887384	      6.12366164	     -7.66737132	      0.00000000	      0.00000000	     28.25429941	     12.24464478	     42.49062281	      3.90757467	    -22.27426776	     32.28377742	     77.60634140	     88.46054609	    -18.68306334	     18.30180723	     63.15847199	    -31.29057356	    -13.25476704	    145.17305416	     89.35863846	     -6.81041672	     20.16474437
      5.86440678	     -2.54337446	     -4.85976619	    103.58284340	      0.20835929	      0.84805344	      0.72858784	      3.72883619	     -2.74569836	     -5.84216547	     13.27396112	      0.23167433	     38.89414707	    -11.71276854	      0.00000000	      6.11811062	      2.28251607	     10.73365331	      8.89283697	      0.15520929	     41.27236855	     15.57589094	      0.00000000	      0.44720526	      0.57510333	     -1.35564237	      0.83050489	      0.76488742	     -1.44037002	      0.73471352	      1.39830623	     -1.44037002	      0.51111089	      1.39830623	     -1.18618707	      0.41527480	      1.17275070	     -1.10145943	      0.25553308	      0.89083505	     -1.01673178	      3.19434244	      6.50568384	     -7.53967617	      0.00000000	      0.00000000	     28.24080308	     12.34616698	     42.90534453	      3.55506994	    -22.53985701	     32.04591973	     77.92733087	     88.44447303	    -18.57128804	     18.81207104	     61.85996862	    -30.49990438	    -14.04459884	    145.96191248	     89.30260883	     -8.43970692	     16.22414866
      5.88135593	     -2.55845082	     -4.74763916	    103.67938384	      0.20833526	      0.84821721	      0.72884475	      3.61204526	     -2.74400882	     -6.13272904	     13.28199668	      0.23181457	     38.80681883	    -11.85793833	      0.00000000	      6.05723020	      2.28549097	     10.87806284	      8.95066678	      0.15621861	     41.33836832	     15.46713866	      0.00000000	      0.42078054	      0.58796613	     -1.24872569	      0.78143153	      0.78199495	     -1.32677104	      0.69130034	      1.42958085	     -1.32677104	      0.48091007	      1.42958085	     -1.09263498	      0.39073681	      1.19898053	     -1.01458962	      0.24043400	      0.91075954	     -0.93654427	      3.00559329	      6.65119046	     -6.94503766	      0.00000000	      0.00000000	     28.20144520	     12.64884543	     42.59058161	      2.68468548	    -22.59982674	     30.72398234	     78.58311300	     88.43957170	    -17.80104784	     19.97137747	     61.10220354	    -29.30385908	    -13.68794210	    146.38237316	     89.23707218	    -11.13026895	     11.69588817
      5.89830508	     -2.64960723	     -4.62865478	    103.81227010	      0.20858764	      0.84841589	      0.72928039	      3.54039460	     -2.79634081	     -6.40115492	     13.42848362	      0.23437125	     38.70250007	    -12.04519329	      0.00000000	      5.96631415	      2.33914295	     10.92320651	      8.97146796	      0.15658165	     41.32402751	     15.51230410	      0.00000000	      0.36792258	      0.58964368	     -1.20740766	      0.68326902	      0.78422610	     -1.28287064	      0.60446000	      1.43365965	     -1.28287064	      0.42049871	      1.43365965	     -1.05648170	      0.34165291	      1.20240140	     -0.98101872	      0.21023096	      0.91335807	     -0.90555574	      2.62803418	      6.67016728	     -6.71523917	      0.00000000	      0.00000000	     28.12118568	     13.21933886	     42.02204506	      2.40365045	    -22.68471646	     30.39041351	     78.86550347	     88.35220494	    -17.72380518	     20.11590147	     60.74875926	    -28.50150598	    -14.12071038	    147.26567887	     89.16820270	    -11.50717368	     11.12679292
      5.91525424	     -2.43848560	     -4.56130476	    104.00105753	      0.20823827	      0.84839027	      0.72925979	      3.47605447	     -2.56226383	     -6.61268691	     13.39035651	      0.23370581	     38.57777868	    -11.91614284	      0.00000000	      5.91418752	      2.12817277	     11.20743944	      8.87118984	      0.15483147	     41.35962298	     15.42784538	      0.00000000	      0.33718651	      0.61985527	     -0.92886716	      0.62618906	      0.82440751	     -0.98692136	      0.55396371	      1.50711611	     -0.98692136	      0.38537046	      1.50711611	     -0.81275877	      0.31311139	      1.26400887	     -0.75470457	      0.19266837	      0.96015582	     -0.69665037	      2.40848950	      7.01192680	     -5.16608051	      0.00000000	      0.00000000	     28.01928170	     12.99840796	     40.01888268	      0.09568463	    -22.48905669	     26.49025497	     80.32176113	     88.35456340	    -15.03994508	     22.03422689	     60.85040561	    -26.15038746	    -11.81111396	    146.72537388	     89.15801169	    -13.82281956	      6.67521071
      5.93220339	     -2.33228879	     -4.51582852	    104.45153376	      0.20782432	      0.84841630	      0.72913770	      3.33233688	     -2.40655950	     -6.78967087	     13.27045556	      0.23161314	     38.31856357	    -12.00559005	      0.00000000	      5.92835556	      2.03579115	     11.56910802	      8.91549569	      0.15560475	     41.36170805	     15.50221515	      0.00000000	      0.30522295	      0.63032472	     -0.81282428	      0.56682953	      0.83833187	     -0.86362580	      0.50145078	      1.53257152	     -0.86362580	      0.34883930	      1.53257152	     -0.71122124	      0.28343003	      1.28535816	     -0.66041973	      0.17440439	      0.97637299	     -0.60961821	      2.18017698	      7.13035927	     -4.52068479	      0.00000000	      0.00000000	     27.88123256	     13.28892426	     38.21123118	     -1.22540733	    -22.33973335	     24.59792722	     81.15087600	     88.27146195	    -14.68812654	     22.53023838	     61.12382059	    -24.25095517	    -10.48530069	    146.54695763	     89.17787740	    -13.81326874	      5.81485352
      5.94915254	     -2.23416460	     -4.51467144	    104.78314260	      0.20770621	      0.84837762	      0.72879067	      3.26497481	     -2.25009195	     -6.87544271	     13.17518893	      0.22995043	     38.08775508	    -12.09174167	      0.00000000	      5.92813955	      1.93730099	     11.91275408	      8.85640146	      0.15457337	     41.30646464	     15.52139750	      0.00000000	      0.27977030	      0.63591778	     -0.69374392	      0.51956142	      0.84577064	     -0.73710291	      0.45963462	      1.54617048	     -0.73710291	      0.31974947	      1.54617048	     -0.60702593	      0.25979470	      1.29676353	     -0.56366693	      0.15986075	      0.98503663	     -0.52030794	      1.99837127	      7.19362905	     -3.85839554	      0.00000000	      0.00000000	     27.76892232	     13.83672663	     36.95714545	     -2.35644662	    -22.23914002	     23.03706113	     81.85572961	     88.21269407	    -14.29726087	     22.71773456	     61.49176563	    -22.49262595	     -9.12636684	    146.13372370	     89.22724689	    -13.40332044	      5.12049780
      5.96610169	     -2.15031219	     -4.56634169	    105.11942337	      0.20752740	      0.84834728	      0.72810955	      3.22296364	     -2.12760648	     -7.02145149	     13.07139717	      0.22813892	     37.78600396	    -12.21951597	      0.00000000	      5.94485053	      1.87137980	     12.31940328	      8.75610637	      0.15282289	     41.18759629	     15.55599977	      0.00000000	      0.27415912	      0.64075743	     -0.62038790	      0.50914091	      0.85220738	     -0.65916214	      0.45041602	      1.55793762	     -0.65916214	      0.31333646	      1.55793762	     -0.54283941	      0.25458416	      1.30663256	     -0.50406517	      0.15665452	      0.99253326	     -0.46529092	      1.95829121	      7.24837622	     -3.45041137	      0.00000000	      0.00000000	     27.75263772	     14.35927101	     36.33285084	     -3.28268840	    -22.10091245	     21.84802461	     82.39346302	     88.19946156	    -14.20151052	     22.56908598	     61.66810801	    -20.98781591	     -8.07097087	    145.71614260	     89.27790283	    -12.86671155	      4.61826834
